<svg
    xmlns="http://www.w3.org/2000/svg"
    width="1024"
    height="1024"
    viewBox="0 0 1024 1024">

    <rect
        id="edit_background"
        width="1024"
        height="1024"
        fill="white"/>

    <defs>
        <symbol id="GLYPH_0" viewBox="344 401 18 21" preserveAspectRatio="xMidYMid meet">
            <path id="GLYPH_0_PATH" d="M358.498,402.022h-7.171h-5.599c-0.782,0-1.416,0.634-1.416,1.416v0.966v13.846v0.966 c0,0.782,0.634,1.416,1.416,1.416h5.599h7.171h0.966c0.782,0,1.416-0.634,1.416-1.416v-0.966v-2.702v-1.89v-9.254v-0.966 c0-0.782-0.634-1.416-1.416-1.416H358.498z M356.427,406.472l-2.427,4.69c-0.682,1.318-2.674,0.833-2.674-0.651v-4.69 c0-0.782,0.634-1.416,1.416-1.416h2.427C356.231,404.405,356.915,405.529,356.427,406.472z M358.498,415.548v1.286 c0,0.782-0.634,1.416-1.416,1.416h-1.643c-1.061,0-1.746-1.125-1.258-2.067l1.643-3.176c0.682-1.318,2.674-0.833,2.674,0.651l0,0 V415.548z"/>
        </symbol>

        <symbol id="GLYPH_1" viewBox="138 401 12 21" preserveAspectRatio="xMidYMid meet">
            <path id="GLYPH_1_PATH" d="M141.813,402.022h-0.922c-0.507,0-0.971,0.285-1.201,0.738l-0.424,0.837 c-0.454,0.895,0.197,1.954,1.201,1.954l0,0c0.743,0,1.346,0.602,1.346,1.346v12.391c0,0.743,0.602,1.346,1.346,1.346h4.324 c0.743,0,1.346-0.602,1.346-1.346v-15.919c0-0.743-0.602-1.346-1.346-1.346h-3.688H141.813z"/>
        </symbol>

        <symbol id="GLYPH_2" viewBox="155 401 19 21" preserveAspectRatio="xMidYMid meet">
            <path id="GLYPH_2_PATH" d="M163.078,402.022h-5.306c-0.944,0-1.709,0.765-1.709,1.709v4.161c0,0.61,0.495,1.105,1.105,1.105 h4.806c0.61,0,1.105-0.495,1.105-1.105v-2.382c0-0.61,0.495-1.105,1.105-1.105h5.099c0.61,0,1.105,0.495,1.105,1.105v7.044 c0,0.61-0.495,1.105-1.105,1.105h-6.066h-5.91c-0.61,0-1.105,0.495-1.105,1.105v1.277v2.21v1.277c0,0.61,0.495,1.105,1.105,1.105 h5.91h8.449c0.61,0,1.105-0.495,1.105-1.105v-0.173c0-0.61-0.495-1.105-1.105-1.105h-7.344c-0.61,0-1.105-0.495-1.105-1.105l0,0 c0-0.61,0.495-1.105,1.105-1.105h6.066h1.277c0.61,0,1.105-0.495,1.105-1.105v-1.277v-9.254v-1.277 c0-0.61-0.495-1.105-1.105-1.105h-1.277H163.078z"/>
        </symbol>

        <symbol id="GLYPH_3" viewBox="179 401 19 21" preserveAspectRatio="xMidYMid meet">
            <path id="GLYPH_3_PATH" d="M187.215,402.022h-5.911c-0.61,0-1.105,0.495-1.105,1.105v1.277v3.487 c0,0.61,0.495,1.105,1.105,1.105h4.806c0.61,0,1.105-0.495,1.105-1.105v-2.382c0-0.61,0.495-1.105,1.105-1.105h4.961 c0.61,0,1.105,0.495,1.105,1.105v7.044c0,0.61-0.495,1.105-1.105,1.105h-11.977c-0.61,0-1.105,0.495-1.105,1.105v0.173 c0,0.61,0.495,1.105,1.105,1.105h11.977c0.61,0,1.105,0.495,1.105,1.105l0,0c0,0.61-0.495,1.105-1.105,1.105h-11.977 c-0.61,0-1.105,0.495-1.105,1.105v0.173c0,0.61,0.495,1.105,1.105,1.105h13.082h1.277c0.61,0,1.105-0.495,1.105-1.105v-1.277 v-2.21v-2.382v-9.254v-1.277c0-0.61-0.495-1.105-1.105-1.105h-1.277H187.215z"/>
        </symbol>

        <symbol id="GLYPH_4" viewBox="203 401 19 21" preserveAspectRatio="xMidYMid meet">
            <path id="GLYPH_4_PATH" d="M217.186,413.658h-4.789c-0.658,0-1.191-0.533-1.191-1.191v-9.254c0-0.658-0.533-1.191-1.191-1.191 h-4.633c-0.658,0-1.191,0.533-1.191,1.191v10.445v1.191c0,0.658,0.533,1.191,1.191,1.191h5.824h5.98 c0.658,0,1.191,0.533,1.191,1.191v2.21c0,0.658,0.533,1.191,1.191,1.191l0,0c0.658,0,1.191-0.533,1.191-1.191v-3.401v-2.382 v-10.445c0-0.658-0.533-1.191-1.191-1.191l0,0c-0.658,0-1.191,0.533-1.191,1.191v9.254 C218.377,413.125,217.843,413.658,217.186,413.658z"/>
        </symbol>

        <symbol id="GLYPH_5" viewBox="227 401 19 21" preserveAspectRatio="xMidYMid meet">
            <path id="GLYPH_5_PATH" d="M242.463,402.022h-7.195h-5.91c-0.61,0-1.105,0.495-1.105,1.105v1.277v9.254v1.277 c0,0.61,0.495,1.105,1.105,1.105h5.91h6.066c0.61,0,1.105,0.495,1.105,1.105l0,0c0,0.61-0.495,1.105-1.105,1.105h-11.977 c-0.61,0-1.105,0.495-1.105,1.105v0.173c0,0.61,0.495,1.105,1.105,1.105h13.082h1.277c0.61,0,1.105-0.495,1.105-1.105v-1.277 v-2.21v-1.277c0-0.61-0.495-1.105-1.105-1.105h-1.277h-6.066c-0.61,0-1.105-0.495-1.105-1.105v-7.044 c0-0.61,0.495-1.105,1.105-1.105h4.985c0.61,0,1.105,0.495,1.105,1.105v2.382c0,0.61,0.495,1.105,1.105,1.105h0.173 c0.61,0,1.105-0.495,1.105-1.105v-5.87h-0.023H242.463z"/>
        </symbol>

        <symbol id="GLYPH_6" viewBox="251 401 19 21" preserveAspectRatio="xMidYMid meet">
            <path id="GLYPH_6_PATH" d="M259.055,402.022h-5.911c-0.61,0-1.105,0.495-1.105,1.105v1.277v9.254v2.382v2.21v1.277 c0,0.61,0.495,1.105,1.105,1.105h5.911h7.171h1.277c0.61,0,1.105-0.495,1.105-1.105v-1.277v-2.21v-1.277 c0-0.61-0.495-1.105-1.105-1.105h-1.277h-6.066c-0.61,0-1.105-0.495-1.105-1.105v-7.044c0-0.61,0.495-1.105,1.105-1.105h4.961 c0.61,0,1.105,0.495,1.105,1.105v2.382c0,0.61,0.495,1.105,1.105,1.105h0.173c0.61,0,1.105-0.495,1.105-1.105v-3.487v-1.277 c0-0.61-0.495-1.105-1.105-1.105h-1.277H259.055z M266.227,417.145L266.227,417.145c0,0.61-0.495,1.105-1.105,1.105h-4.961 c-0.61,0-1.105-0.495-1.105-1.105l0,0c0-0.61,0.495-1.105,1.105-1.105h4.961C265.732,416.04,266.227,416.535,266.227,417.145z"/>
        </symbol>

        <symbol id="GLYPH_7" viewBox="275 401 18 21" preserveAspectRatio="xMidYMid meet">
            <path id="GLYPH_7_PATH" d="M275.826,403.214L275.826,403.214c0,0.658,0.533,1.191,1.191,1.191h5.189 c0.891,0,1.467,0.943,1.06,1.735l-6.549,12.758c-0.407,0.793,0.169,1.735,1.06,1.735h4.338c0.447,0,0.856-0.25,1.06-0.647 l7.998-15.581l0,0l0.332-0.647c0.407-0.793-0.169-1.735-1.06-1.735h-5.065h-8.362C276.36,402.022,275.826,402.556,275.826,403.214 z"/>
        </symbol>

        <symbol id="GLYPH_8" viewBox="298 401 19 21" preserveAspectRatio="xMidYMid meet">
            <path id="GLYPH_8_PATH" d="M305.67,402.022h-5.911c-0.61,0-1.105,0.495-1.105,1.105v1.277v9.254v2.382v2.21v1.277 c0,0.61,0.495,1.105,1.105,1.105h5.911h7.171h1.277c0.61,0,1.105-0.495,1.105-1.105v-1.277v-2.21v-0.493v-1.89v-9.254v-1.277 c0-0.61-0.495-1.105-1.105-1.105h-1.277H305.67z M311.736,418.25h-4.961c-0.61,0-1.105-0.495-1.105-1.105l0,0 c0-0.61,0.495-1.105,1.105-1.105h4.961c0.61,0,1.105,0.495,1.105,1.105l0,0C312.841,417.756,312.347,418.25,311.736,418.25z M311.736,413.658h-4.961c-0.61,0-1.105-0.495-1.105-1.105v-7.044c0-0.61,0.495-1.105,1.105-1.105h4.961 c0.61,0,1.105,0.495,1.105,1.105v7.044C312.841,413.164,312.347,413.658,311.736,413.658z"/>
        </symbol>

        <symbol id="GLYPH_9" viewBox="321 401 19 21" preserveAspectRatio="xMidYMid meet">
            <path id="GLYPH_9_PATH" d="M328.498,402.022h-5.91c-0.61,0-1.105,0.495-1.105,1.105v1.277v9.254v1.277 c0,0.61,0.495,1.105,1.105,1.105h5.91h6.066c0.61,0,1.105,0.495,1.105,1.105l0,0c0,0.61-0.495,1.105-1.105,1.105h-11.977 c-0.61,0-1.105,0.495-1.105,1.105v0.173c0,0.61,0.495,1.105,1.105,1.105h13.082h1.277c0.61,0,1.105-0.495,1.105-1.105v-1.277 v-2.21v-0.493v-1.89v-9.254v-1.277c0-0.61-0.495-1.105-1.105-1.105h-1.277H328.498z M334.564,413.658h-4.961 c-0.61,0-1.105-0.495-1.105-1.105v-7.044c0-0.61,0.495-1.105,1.105-1.105h4.961c0.61,0,1.105,0.495,1.105,1.105v7.044 C335.669,413.164,335.175,413.658,334.564,413.658z"/>
        </symbol>

        <symbol id="GLYPH_A" viewBox="50 173 32 33" preserveAspectRatio="xMidYMid meet">
            <path id="GLYPH_A_PATH" d="M63.646,173.612h-9.96c-1.104,0-1.999,0.895-1.999,1.999v1.999v15.846v3.998v5.883 c0,1.104,0.895,1.999,1.999,1.999h7.961c1.104,0,1.999-0.895,1.999-1.999v-3.884c0-1.104,0.895-1.999,1.999-1.999h8.227 c1.104,0,1.999,0.895,1.999,1.999v3.884c0,1.104,0.895,1.999,1.999,1.999l0,0c1.104,0,1.999-0.895,1.999-1.999v-5.883v-3.998 V177.61v-1.999c0-1.104-0.895-1.999-1.999-1.999h-1.999H63.646z M73.872,193.456h-8.227c-1.104,0-1.999-0.895-1.999-1.999v-11.848 c0-1.104,0.895-1.999,1.999-1.999h8.227c1.104,0,1.999,0.895,1.999,1.999v11.848C75.871,192.561,74.976,193.456,73.872,193.456z"/>
        </symbol>

        <symbol id="GLYPH_B" viewBox="91 173 32 33" preserveAspectRatio="xMidYMid meet">
            <path id="GLYPH_B_PATH" d="M104.59,173.612H94.573c-1.073,0-1.942,0.87-1.942,1.942v2.056v15.846v3.998v3.884v2.056 c0,1.073,0.869,1.942,1.942,1.942h10.017h12.225h2.056c1.073,0,1.942-0.869,1.942-1.942v-2.056v-3.884v-3.998V177.61v-2.056 c0-1.073-0.869-1.942-1.942-1.942h-2.056H104.59z M114.873,201.339h-8.341c-1.073,0-1.942-0.87-1.942-1.942l0,0 c0-1.073,0.87-1.942,1.942-1.942h8.341c1.073,0,1.942,0.87,1.942,1.942l0,0C116.815,200.469,115.945,201.339,114.873,201.339z M114.873,193.456h-8.341c-1.073,0-1.942-0.869-1.942-1.942v-11.962c0-1.073,0.87-1.942,1.942-1.942h8.341 c1.073,0,1.942,0.87,1.942,1.942v11.962C116.815,192.587,115.945,193.456,114.873,193.456z"/>
        </symbol>

        <symbol id="GLYPH_C" viewBox="132 173 32 33" preserveAspectRatio="xMidYMid meet">
            <path id="GLYPH_C_PATH" d="M135.516,173.612c-1.073,0-1.942,0.87-1.942,1.942v2.056v23.729v2.056 c0,1.073,0.87,1.942,1.942,1.942h10.017h12.225h2.056c1.073,0,1.942-0.869,1.942-1.942v-2.056v-1.942 c0-1.073-0.87-1.942-1.942-1.942h-0.114c-1.073,0-1.942,0.87-1.942,1.942l0,0c0,1.073-0.869,1.942-1.942,1.942h-8.341 c-1.073,0-1.942-0.87-1.942-1.942v-19.844c0-1.073,0.869-1.942,1.942-1.942h8.341c1.073,0,1.942,0.87,1.942,1.942v11.962 c0,1.073,0.87,1.942,1.942,1.942h0.114c1.073,0,1.942-0.869,1.942-1.942V177.61l0,0c0-2.208-1.79-3.998-3.998-3.998h-12.225 H135.516z"/>
        </symbol>

        <symbol id="GLYPH_D" viewBox="173 173 32 33" preserveAspectRatio="xMidYMid meet">
            <path id="GLYPH_D_PATH" d="M186.477,205.337h12.88c1.846,0,3.343-1.497,3.343-3.343v-25.039c0-1.846-1.497-3.343-3.343-3.343 h-24.839v3.998v23.729v3.998H186.477L186.477,205.337z M186.477,177.61h12.225v23.729h-12.225V177.61z"/>
        </symbol>

        <symbol id="GLYPH_E" viewBox="214 173 32 33" preserveAspectRatio="xMidYMid meet">
            <path id="GLYPH_E_PATH" d="M217.928,173.612c-1.362,0-2.467,1.104-2.467,2.467v1.532v15.846v3.998v3.884v1.531 c0,1.362,1.104,2.467,2.467,2.467h9.493h14.281c1.073,0,1.942-0.869,1.942-1.942v-0.114c0-1.073-0.869-1.942-1.942-1.942h-12.339 c-1.073,0-1.942-0.87-1.942-1.942l0,0c0-1.073,0.87-1.942,1.942-1.942h12.339c1.073,0,1.942-0.869,1.942-1.942v-0.114 c0-1.073-0.869-1.942-1.942-1.942h-12.339c-1.073,0-1.942-0.869-1.942-1.942v-11.962c0-1.073,0.87-1.942,1.942-1.942h12.339 c1.073,0,1.942-0.87,1.942-1.942v-0.114c0-1.073-0.869-1.942-1.942-1.942h-14.281H217.928z"/>
        </symbol>

        <symbol id="GLYPH_F" viewBox="255 173 32 33" preserveAspectRatio="xMidYMid meet">
            <path id="GLYPH_F_PATH" d="M258.404,173.612c-1.104,0-1.999,0.895-1.999,1.999v1.999v15.846v3.998v5.883 c0,1.104,0.895,1.999,1.999,1.999h7.961c1.104,0,1.999-0.895,1.999-1.999v-3.884c0-1.104,0.895-1.999,1.999-1.999h12.225 c1.104,0,1.999-0.895,1.999-1.999l0,0c0-1.104-0.895-1.999-1.999-1.999h-12.225c-1.104,0-1.999-0.895-1.999-1.999v-11.848 c0-1.104,0.895-1.999,1.999-1.999h12.225c1.104,0,1.999-0.895,1.999-1.999l0,0c0-1.104-0.895-1.999-1.999-1.999h-14.224H258.404z"/>
        </symbol>

        <symbol id="GLYPH_I" viewBox="380 173 32 33" preserveAspectRatio="xMidYMid meet">
            <path id="GLYPH_I_PATH" d="M397.103,173.612h-7.6c-1.204,0-2.18,0.976-2.18,2.18v27.365c0,1.204,0.976,2.18,2.18,2.18h7.6 c1.204,0,2.18-0.976,2.18-2.18v-27.365C399.283,174.588,398.306,173.612,397.103,173.612z"/>
        </symbol>

        <symbol id="GLYPH_K" viewBox="50 231 32 33" preserveAspectRatio="xMidYMid meet">
            <path id="GLYPH_K_PATH" d="M74.352,251.18h-9.186c-0.839,0-1.52-0.68-1.52-1.52v-16.805c0-0.839-0.68-1.52-1.52-1.52h-8.365 c-1.146,0-2.075,0.929-2.075,2.075v17.769v3.998v5.808c0,1.146,0.929,2.075,2.075,2.075h8.365c0.839,0,1.52-0.68,1.52-1.52v-4.843 c0-0.839,0.68-1.52,1.52-1.52h5.254c0.573,0,1.097,0.322,1.356,0.833l3.149,6.217c0.259,0.511,0.783,0.833,1.356,0.833h1.116 c1.133,0,1.868-1.196,1.356-2.206l-2.875-5.676h2.473c0.839,0,1.52-0.68,1.52-1.52v-2.479v-18.325c0-0.839-0.68-1.52-1.52-1.52 h-0.959c-0.839,0-1.52,0.68-1.52,1.52v16.805C75.871,250.5,75.191,251.18,74.352,251.18z"/>
        </symbol>

        <symbol id="GLYPH_L" viewBox="91 231 32 33" preserveAspectRatio="xMidYMid meet">
            <path id="GLYPH_L_PATH" d="M102.591,231.336H94.63c-1.104,0-1.999,0.895-1.999,1.999v25.728v1.999 c0,1.104,0.895,1.999,1.999,1.999h9.96h14.224c1.104,0,1.999-0.895,1.999-1.999l0,0c0-1.104-0.895-1.999-1.999-1.999h-12.225 c-1.104,0-1.999-0.895-1.999-1.999v-23.729C104.59,232.231,103.695,231.336,102.591,231.336z"/>
        </symbol>

        <symbol id="GLYPH_M" viewBox="132 231 32 33" preserveAspectRatio="xMidYMid meet">
            <path id="GLYPH_M_PATH" d="M135.573,231.336c-1.104,0-1.999,0.895-1.999,1.999v1.999v25.728c0,1.104,0.895,1.999,1.999,1.999 h7.961c1.104,0,1.999-0.895,1.999-1.999v-23.729c0-1.104,0.895-1.999,1.999-1.999h0.115c1.104,0,1.999,0.895,1.999,1.999v23.729 c0,1.104,0.895,1.999,1.999,1.999h0c1.104,0,1.999-0.895,1.999-1.999v-23.729c0-1.104,0.895-1.999,1.999-1.999h0.115 c1.104,0,1.999,0.895,1.999,1.999v23.729c0,1.104,0.895,1.999,1.999,1.999h0c1.104,0,1.999-0.895,1.999-1.999v-25.728v-1.551 c0-1.352-1.096-2.447-2.447-2.447h-13.776H135.573z"/>
        </symbol>

        <symbol id="GLYPH_P" viewBox="255 231 32 33" preserveAspectRatio="xMidYMid meet">
            <path id="GLYPH_P_PATH" d="M260.346,231.336c-2.177,0-3.941,1.765-3.941,3.941v0.057v15.846v3.998v3.941 c0,2.177,1.765,3.941,3.941,3.941h4.077c2.177,0,3.941-1.765,3.941-3.941l0,0c0-2.177,1.764-3.941,3.941-3.941h8.284h0.057 c2.177,0,3.941-1.764,3.941-3.941v-0.057v-15.846l0,0c0-2.208-1.79-3.998-3.998-3.998h-12.225H260.346z M280.59,239.275v7.964 c0,2.177-1.764,3.941-3.941,3.941h-4.342c-2.177,0-3.941-1.765-3.941-3.941v-7.964c0-2.177,1.764-3.941,3.941-3.941h4.342 C278.825,235.334,280.59,237.098,280.59,239.275z"/>
        </symbol>

        <symbol id="GLYPH_R" viewBox="337 231 32 33" preserveAspectRatio="xMidYMid meet">
            <path id="GLYPH_R_PATH" d="M350.252,231.336h-10.44c-0.839,0-1.52,0.68-1.52,1.52v2.479v15.846v3.998v6.363 c0,0.839,0.68,1.52,1.52,1.52h8.92c0.839,0,1.52-0.68,1.52-1.52v-4.843c0-0.839,0.68-1.52,1.52-1.52h5.254 c0.573,0,1.097,0.322,1.356,0.833l3.149,6.217c0.259,0.511,0.783,0.833,1.356,0.833h1.116c1.133,0,1.868-1.196,1.356-2.206 l-1.758-3.47c-0.512-1.011,0.223-2.207,1.356-2.207l0,0c0.839,0,1.52-0.68,1.52-1.52v-2.479v-15.846v-2.479 c0-0.839-0.68-1.52-1.52-1.52h-2.479H350.252z M360.957,251.18h-9.186c-0.839,0-1.52-0.68-1.52-1.52v-12.807 c0-0.839,0.68-1.52,1.52-1.52h9.186c0.839,0,1.52,0.68,1.52,1.52v12.807C362.477,250.5,361.796,251.18,360.957,251.18z"/>
        </symbol>

        <symbol id="GLYPH_T" viewBox="419 231 32 33" preserveAspectRatio="xMidYMid meet">
            <path id="GLYPH_T_PATH" d="M428.242,231.336h-6.112c-1.104,0-1.999,0.895-1.999,1.999l0,0c0,1.104,0.895,1.999,1.999,1.999 h4.113c1.104,0,1.999,0.895,1.999,1.999v23.729c0,1.104,0.895,1.999,1.999,1.999h7.961c1.104,0,1.999-0.895,1.999-1.999v-23.729 c0-1.104,0.895-1.999,1.999-1.999h4.113c1.104,0,1.999-0.895,1.999-1.999l0,0c0-1.104-0.895-1.999-1.999-1.999h-6.113H428.242z"/>
        </symbol>

        <symbol id="GLYPH_V" viewBox="173 289 32 33" preserveAspectRatio="xMidYMid meet">
            <path id="GLYPH_V_PATH" d="M198.486,313.405l-1.158,2.285c-0.341,0.672-1.03,1.096-1.784,1.096h-7.068 c-1.104,0-1.999-0.895-1.999-2v-23.728c0-1.104-0.895-2-2-2h-7.96c-1.104,0-1.999,0.895-1.999,2v25.727v1.999 c0,1.104,0.895,2,1.999,2h9.96h8.271l0,0h3.294c0.754,0,1.443-0.424,1.784-1.096l2.66-5.251c0.142-0.28,0.216-0.59,0.216-0.904 v-22.476c0-1.104-0.895-2-1.999-2l0,0c-1.104,0-2,0.895-2,2v21.443C198.702,312.816,198.628,313.125,198.486,313.405z"/>
        </symbol>

        <symbol id="GLYPH_W" viewBox="214 289 32 33" preserveAspectRatio="xMidYMid meet">
            <path id="GLYPH_W_PATH" d="M237.647,316.786h-0.115c-1.104,0-1.999-0.895-1.999-1.999v-23.729 c0-1.104-0.895-1.999-1.999-1.999l0,0c-1.104,0-1.999,0.895-1.999,1.999v23.729c0,1.104-0.895,1.999-1.999,1.999h-0.178 c-1.104,0-1.999-0.895-1.999-1.999v-23.729c0-1.104-0.895-1.999-1.999-1.999h-7.961c-1.104,0-1.999,0.895-1.999,1.999v27.723 c0,1.106,0.898,2.001,2.003,1.999l24.247-0.049c1.102-0.002,1.995-0.897,1.995-1.999v-1.946v-25.728 c0-1.104-0.895-1.999-1.999-1.999h0c-1.104,0-1.999,0.895-1.999,1.999v23.729C239.646,315.892,238.751,316.786,237.647,316.786z"/>
        </symbol>

        <symbol id="GLYPH_X" viewBox="255 289 32 33" preserveAspectRatio="xMidYMid meet">
            <path id="GLYPH_X_PATH" d="M278.429,308.904h-4.993l8.603-16.922c0.66-1.299-0.283-2.837-1.74-2.837h-6.737 c-0.735,0-1.407,0.413-1.74,1.067l-3.526,6.937c-0.725,1.426-2.763,1.423-3.483-0.006l-3.492-6.926 c-0.332-0.658-1.006-1.073-1.743-1.073l0,0c-1.454,0-2.398,1.533-1.743,2.831l6.074,12.046c0.28,0.555,0.279,1.21-0.003,1.764 l-6.183,12.162c-0.66,1.299,0.283,2.837,1.74,2.837h6.736c0.735,0,1.407-0.413,1.74-1.068l2.922-5.748 c0.333-0.655,1.005-1.067,1.74-1.067h2.19c0.729,0,1.398,0.406,1.733,1.054l2.994,5.776c0.336,0.647,1.004,1.054,1.733,1.054 h0.125c1.464,0,2.407-1.551,1.733-2.85l-2.609-5.033L278.429,308.904z"/>
        </symbol>

    </defs>

    <g
        id="font_objects"
        fill="#000000"
        stroke="none">

        <use id="NUM_0_X0_Y0" href="#GLYPH_0" x="28" y="24" width="72" height="80"/>
        <use id="NUM_1_X1_Y0" href="#GLYPH_1" x="156" y="24" width="72" height="80"/>
        <use id="NUM_2_X2_Y0" href="#GLYPH_2" x="284" y="24" width="72" height="80"/>
        <use id="NUM_3_X3_Y0" href="#GLYPH_3" x="412" y="24" width="72" height="80"/>
        <use id="NUM_4_X4_Y0" href="#GLYPH_4" x="540" y="24" width="72" height="80"/>
        <use id="NUM_5_X5_Y0" href="#GLYPH_5" x="668" y="24" width="72" height="80"/>
        <use id="NUM_6_X6_Y0" href="#GLYPH_6" x="796" y="24" width="72" height="80"/>
        <use id="NUM_7_X7_Y0" href="#GLYPH_7" x="924" y="24" width="72" height="80"/>

        <use id="NUM_8_X0_Y1" href="#GLYPH_8" x="28" y="152" width="72" height="80"/>
        <use id="NUM_9_X1_Y1" href="#GLYPH_9" x="156" y="152" width="72" height="80"/>

        <g id="STR_BPM_X2_Y1">
            <use href="#GLYPH_B" x="269.000" y="171" width="30" height="42"/>
            <use href="#GLYPH_P" x="303.000" y="171" width="30" height="42"/>
            <use href="#GLYPH_M" x="337.000" y="171" width="30" height="42"/>
        </g>

        <g id="STR_EXT_X3_Y1">
            <use href="#GLYPH_E" x="397.000" y="171" width="30" height="42"/>
            <use href="#GLYPH_X" x="431.000" y="171" width="30" height="42"/>
            <use href="#GLYPH_T" x="465.000" y="171" width="30" height="42"/>
        </g>

        <g id="STR_MLT_X4_Y1">
            <use href="#GLYPH_M" x="525.000" y="171" width="30" height="42"/>
            <use href="#GLYPH_L" x="559.000" y="171" width="30" height="42"/>
            <use href="#GLYPH_T" x="593.000" y="171" width="30" height="42"/>
        </g>

        <g id="STR_WAV_X5_Y1">
            <use href="#GLYPH_W" x="653.000" y="171" width="30" height="42"/>
            <use href="#GLYPH_A" x="687.000" y="171" width="30" height="42"/>
            <use href="#GLYPH_V" x="721.000" y="171" width="30" height="42"/>
        </g>

        <g id="STR_FRM_X0_Y2">
            <use href="#GLYPH_F" x="13.000" y="299" width="30" height="42"/>
            <use href="#GLYPH_R" x="47.000" y="299" width="30" height="42"/>
            <use href="#GLYPH_M" x="81.000" y="299" width="30" height="42"/>
        </g>

        <g id="STR_TEX_X1_Y2">
            <use href="#GLYPH_T" x="141.000" y="299" width="30" height="42"/>
            <use href="#GLYPH_E" x="175.000" y="299" width="30" height="42"/>
            <use href="#GLYPH_X" x="209.000" y="299" width="30" height="42"/>
        </g>

        <g id="STR_VID_X2_Y2">
            <use href="#GLYPH_V" x="269.000" y="299" width="30" height="42"/>
            <use href="#GLYPH_I" x="303.000" y="299" width="30" height="42"/>
            <use href="#GLYPH_D" x="337.000" y="299" width="30" height="42"/>
        </g>

        <g id="STR_CLK_X3_Y2">
            <use href="#GLYPH_C" x="397.000" y="299" width="30" height="42"/>
            <use href="#GLYPH_L" x="431.000" y="299" width="30" height="42"/>
            <use href="#GLYPH_K" x="465.000" y="299" width="30" height="42"/>
        </g>

    </g>
</svg>